<svg width="189" height="189" fill="none" xmlns="http://www.w3.org/2000/svg"><path d="M94.5 0A94.502 94.502 0 01189 94.5 94.503 94.503 0 0194.5 189a94.5 94.5 0 110-189zm5.008 40.392c-10.989 0-19.602 3.118-25.987 9.355-6.534 6.237-9.653 14.85-9.653 25.84h16.93c0-6.237 1.188-11.138 3.712-14.554 2.822-4.157 7.425-6.088 13.959-6.088 5.049 0 9.058 1.337 11.88 4.158 2.673 2.822 4.158 6.682 4.158 11.583 0 3.712-1.336 7.276-4.009 10.543l-1.782 2.08c-9.653 8.612-15.444 14.85-17.375 18.859-2.079 4.009-2.97 8.91-2.97 14.553v2.079h17.078v-2.079c0-3.564.742-6.683 2.227-9.653 1.336-2.672 3.267-5.197 5.94-7.424 7.128-6.238 11.435-10.247 12.771-11.732 3.564-4.752 5.495-10.84 5.495-18.266 0-9.058-2.971-16.186-8.91-21.383-5.94-5.346-13.811-7.871-23.463-7.871zm-2.672 85.684a11.453 11.453 0 00-8.168 3.119 10.423 10.423 0 00-3.267 8.019c0 3.267 1.04 5.94 3.267 8.019a11.568 11.568 0 008.167 3.267c3.268 0 5.94-1.04 8.168-3.118a10.865 10.865 0 003.416-8.168 10.97 10.97 0 00-3.268-8.019 11.8 11.8 0 00-8.316-3.119z" fill="#FFC835"/></svg>