<svg width="30" height="30" viewBox="0 0 30 30" fill="none" xmlns="http://www.w3.org/2000/svg">
<path d="M29.1107 13.152C26.4838 11.0646 21.1575 7.56299 15 7.56299C8.8425 7.56299 3.51615 11.065 0.887344 13.1537C0.323496 13.6049 0 14.2775 0 14.9999C0 15.7224 0.323496 16.395 0.881895 16.8416C1.71275 17.5213 2.74172 18.2511 3.85723 18.9525C4.17328 19.1509 4.59076 19.0559 4.78951 18.7399C4.98826 18.4235 4.89293 18.0063 4.57687 17.8076C3.50801 17.1356 2.52639 16.4396 1.73238 15.7903C1.49068 15.5969 1.35211 15.3089 1.35211 14.9999C1.35211 14.691 1.49068 14.4026 1.73039 14.211C4.21928 12.2332 9.25318 8.91545 15 8.91545C20.7468 8.91545 25.7807 12.2336 28.268 14.2096C28.5093 14.403 28.6479 14.691 28.6479 15.0003C28.6479 15.3093 28.5093 15.5973 28.2696 15.7893C25.7807 17.7667 20.7465 21.0844 15 21.0844C14.6268 21.0844 14.3239 21.3873 14.3239 21.7605C14.3239 22.1337 14.6268 22.4366 15 22.4366C21.1572 22.4366 26.4838 18.9353 29.1124 16.8456C29.6765 16.3943 30 15.7216 30 14.9996C30 14.2775 29.6765 13.6045 29.1107 13.152Z" fill="white"/>
<path d="M15 7.56372C10.8993 7.56372 7.56335 10.8997 7.56335 15.0003C7.56335 19.1009 10.8993 22.4369 15 22.4369C15.3731 22.4369 15.676 22.134 15.676 21.7609C15.676 21.3877 15.3731 21.0848 15 21.0848C11.6451 21.0848 8.91546 18.3552 8.91546 15.0003C8.91546 11.6454 11.6451 8.91583 15 8.91583C18.3549 8.91583 21.0844 11.6454 21.0844 15.0003C21.0844 15.3735 21.3873 15.6764 21.7605 15.6764C22.1337 15.6764 22.4366 15.3735 22.4366 15.0003C22.4366 10.8997 19.1006 7.56372 15 7.56372Z" fill="white"/>
</svg>
