<svg width="24" height="24" viewBox="0 0 24 24" fill="none" xmlns="http://www.w3.org/2000/svg">
<g id="facebook 3" clip-path="url(#clip0_77_217)">
<path id="Vector" d="M21.8217 0.732422H1.96348C1.28351 0.732831 0.732286 1.28433 0.732422 1.96457V21.8228C0.732831 22.5028 1.28433 23.054 1.96457 23.0539H12.6561V14.4217H9.75691V11.043H12.6561V8.5565C12.6561 5.673 14.4164 4.10352 16.9886 4.10352C18.2206 4.10352 19.2793 4.19535 19.5879 4.23636V7.2501H17.8142C16.4148 7.2501 16.1438 7.91509 16.1438 8.89111V11.043H19.4898L19.0539 14.4217H16.1438V23.0539H21.8217C22.5021 23.054 23.0537 22.5026 23.0539 21.8222C23.0539 21.8221 23.0539 21.822 23.0539 21.8217V1.96348C23.0536 1.28351 22.5019 0.732286 21.8217 0.732422Z" fill="#372821"/>
</g>
<defs>
<clipPath id="clip0_77_217">
<rect width="23.8095" height="23.8095" fill="white"/>
</clipPath>
</defs>
</svg>
