<svg width="23" height="23" viewBox="0 0 23 23" fill="none" xmlns="http://www.w3.org/2000/svg">
<g id="instagram 2" clip-path="url(#clip0_77_203)">
<g id="Group">
<g id="Group_2">
<path id="Vector" d="M16.0486 0H6.57048C2.9475 0 0 2.9475 0 6.57048V16.0486C0 19.6715 2.9475 22.619 6.57048 22.619H16.0486C19.6715 22.619 22.619 19.6715 22.619 16.0486V6.57048C22.619 2.9475 19.6715 0 16.0486 0ZM20.8519 16.0486C20.8519 18.6972 18.6972 20.8519 16.0486 20.8519H6.57048C3.92189 20.8519 1.76711 18.6972 1.76711 16.0486V6.57048C1.76711 3.92189 3.92189 1.76711 6.57048 1.76711H16.0486C18.6972 1.76711 20.8519 3.92189 20.8519 6.57048V16.0486Z" fill="#372821"/>
</g>
</g>
<g id="Group_3">
<g id="Group_4">
<path id="Vector_2" d="M11.3095 5.21289C7.94786 5.21289 5.21298 7.94776 5.21298 11.3094C5.21298 14.6711 7.94786 17.406 11.3095 17.406C14.6712 17.406 17.4061 14.6711 17.4061 11.3094C17.4061 7.94776 14.6712 5.21289 11.3095 5.21289ZM11.3095 15.6389C8.92229 15.6389 6.9801 13.6967 6.9801 11.3094C6.9801 8.92219 8.92229 6.98 11.3095 6.98C13.6968 6.98 15.639 8.92219 15.639 11.3094C15.639 13.6967 13.6968 15.6389 11.3095 15.6389Z" fill="#372821"/>
</g>
</g>
<g id="Group_5">
<g id="Group_6">
<path id="Vector_3" d="M17.4944 6.00832C17.9824 6.00832 18.378 5.61274 18.378 5.12477C18.378 4.63679 17.9824 4.24121 17.4944 4.24121C17.0064 4.24121 16.6109 4.63679 16.6109 5.12477C16.6109 5.61274 17.0064 6.00832 17.4944 6.00832Z" fill="#372821"/>
</g>
</g>
</g>
<defs>
<clipPath id="clip0_77_203">
<rect width="22.619" height="22.619" fill="white"/>
</clipPath>
</defs>
</svg>
