<svg width="34" height="33" viewBox="0 0 34 33" fill="none" xmlns="http://www.w3.org/2000/svg">
    <path
        d="M4.84566 7.63954L13.9723 14.2928C15.7835 15.6132 18.2165 15.6132 20.0277 14.2928L29.1543 7.63954M2.60852 21.577C1.79716 18.243 1.79716 14.757 2.60851 11.423C3.6706 7.05862 7.06213 3.68415 11.364 2.7115L12.0807 2.54947C15.3209 1.81684 18.6791 1.81684 21.9193 2.54947L22.636 2.7115C26.9379 3.68415 30.3294 7.05863 31.3915 11.423C32.2028 14.757 32.2028 18.243 31.3915 21.577C30.3294 25.9414 26.9379 29.3158 22.636 30.2885L21.9193 30.4505C18.6791 31.1832 15.3209 31.1832 12.0807 30.4505L11.364 30.2885C7.06213 29.3158 3.6706 25.9414 2.60852 21.577Z"
        stroke="#000" stroke-width="3" stroke-linecap="round" />
</svg>