<svg width="189" height="189" viewBox="0 0 189 189" fill="none" xmlns="http://www.w3.org/2000/svg">
<path d="M94.5 0C119.563 0 143.599 9.95622 161.322 27.6784C179.044 45.4006 189 69.437 189 94.5C189 119.563 179.044 143.599 161.322 161.322C143.599 179.044 119.563 189 94.5 189C69.437 189 45.4006 179.044 27.6784 161.322C9.95622 143.599 0 119.563 0 94.5C0 69.437 9.95622 45.4006 27.6784 27.6784C45.4006 9.95622 69.437 0 94.5 0ZM99.5085 40.392C88.5195 40.392 79.9065 43.5105 73.521 49.7475C66.987 55.9845 63.8685 64.5975 63.8685 75.5865H80.7975C80.7975 69.3495 81.9855 64.449 84.51 61.0335C87.3315 56.8755 91.935 54.945 98.469 54.945C103.518 54.945 107.527 56.2815 110.349 59.103C113.022 61.9245 114.507 65.7855 114.507 70.686C114.507 74.3985 113.171 77.9625 110.498 81.2295L108.716 83.3085C99.063 91.9215 93.2715 98.1585 91.341 102.168C89.262 106.177 88.371 111.078 88.371 116.721V118.8H105.449V116.721C105.449 113.157 106.191 110.038 107.676 107.068C109.012 104.396 110.943 101.871 113.616 99.6435C120.744 93.4065 125.051 89.397 126.387 87.912C129.951 83.16 131.882 77.0715 131.882 69.6465C131.882 60.588 128.911 53.46 122.972 48.2625C117.032 42.9165 109.161 40.392 99.5085 40.392ZM96.8355 126.076C93.8077 125.995 90.8707 127.116 88.668 129.195C87.5805 130.219 86.726 131.466 86.1623 132.849C85.5986 134.233 85.339 135.721 85.401 137.214C85.401 140.481 86.4405 143.154 88.668 145.233C90.8542 147.355 93.789 148.529 96.8355 148.5C100.103 148.5 102.775 147.46 105.003 145.382C106.114 144.336 106.992 143.068 107.58 141.661C108.169 140.254 108.454 138.739 108.419 137.214C108.447 135.726 108.172 134.247 107.61 132.868C107.049 131.49 106.212 130.24 105.151 129.195C102.891 127.112 99.9079 125.993 96.8355 126.076Z" fill="#FFC835"/>
</svg>
