<svg width="69" height="135" viewBox="0 0 69 135" fill="none" xmlns="http://www.w3.org/2000/svg">
<g id="Group 16">
<path id="Rectangle 21" d="M58.5 100H68C68 73.8349 68 33 68 33H58.5M31 100H1C1 100 1 59.1651 1 33H31" stroke="#372821"/>
<path id="Vector" d="M47 131.738L43.5 135L40 131.738L41.0515 130.758L42.7565 132.347L42.7565 83.5234H44.2891L44.2436 132.347L45.9485 130.758L47 131.738Z" fill="#372821"/>
<rect id="Rectangle 50" width="9" height="9" transform="matrix(-1 0 0 1 48 63)" fill="#372821"/>
<path id="Vector_2" d="M40 3.26189L43.5 0L47 3.26189L45.9485 4.24188L44.2435 2.653V51.4766H42.7109L42.7564 2.653L41.0515 4.24188L40 3.26189Z" fill="#372821"/>
</g>
</svg>
