<svg width="25" height="24" viewBox="0 0 25 24" fill="none" xmlns="http://www.w3.org/2000/svg">
<g id="twitter 3" clip-path="url(#clip0_77_213)">
<g id="Group">
<g id="Group_2">
<path id="Vector" d="M25 4.52211C24.0703 4.91051 23.0797 5.16795 22.0469 5.29295C23.1094 4.68878 23.9203 3.73937 24.3016 2.59503C23.3109 3.15753 22.2172 3.55485 21.0516 3.77658C20.1109 2.82271 18.7703 2.23193 17.3078 2.23193C14.4703 2.23193 12.1859 4.42539 12.1859 7.11437C12.1859 7.50128 12.2203 7.8733 12.3047 8.22747C8.04375 8.02955 4.27344 6.08461 1.74062 3.12181C1.29844 3.85247 1.03906 4.68878 1.03906 5.58908C1.03906 7.27955 1.95312 8.77806 3.31562 9.64562C2.49219 9.63074 1.68437 9.40306 1 9.04443C1 9.05931 1 9.07866 1 9.098C1 11.47 2.77656 13.4403 5.10625 13.8941C4.68906 14.0028 4.23438 14.0548 3.7625 14.0548C3.43438 14.0548 3.10312 14.037 2.79219 13.9715C3.45625 15.9046 5.34063 17.3257 7.58125 17.3718C5.8375 18.6709 3.62344 19.4537 1.22656 19.4537C0.80625 19.4537 0.403125 19.4358 0 19.3867C2.27031 20.781 4.96094 21.5772 7.8625 21.5772C17.2937 21.5772 22.45 14.1367 22.45 7.68729C22.45 7.47152 22.4422 7.26318 22.4312 7.05634C23.4484 6.36884 24.3031 5.51021 25 4.52211Z" fill="#372821"/>
</g>
</g>
</g>
<defs>
<clipPath id="clip0_77_213">
<rect width="25" height="23.8095" fill="white"/>
</clipPath>
</defs>
</svg>
