<svg width="20" height="26" viewBox="0 0 20 26" fill="none" xmlns="http://www.w3.org/2000/svg">
<path d="M1.53473 21.6918C1.53473 18.7425 3.5669 16.2303 6.32868 15.7655L6.57745 15.7236C8.78894 15.3514 11.0424 15.3514 13.2539 15.7236L13.5027 15.7655C16.2645 16.2303 18.2966 18.7425 18.2966 21.6918C18.2966 22.9666 17.3167 24 16.1079 24H3.72351C2.51468 24 1.53473 22.9666 1.53473 21.6918Z" stroke="white" stroke-width="3"/>
<path d="M14.8046 6.8125C14.8046 9.47037 12.6158 11.625 9.91571 11.625C7.21565 11.625 5.02682 9.47037 5.02682 6.8125C5.02682 4.15463 7.21565 2 9.91571 2C12.6158 2 14.8046 4.15463 14.8046 6.8125Z" stroke="white" stroke-width="3"/>
</svg>
